<svg width="663" height="100" viewBox="0 0 663 100" fill="none" xmlns="http://www.w3.org/2000/svg">
<path d="M158.556 11.4342C159.909 11.3146 160.983 11.4741 161.699 11.9924C162.415 12.5107 162.773 13.3082 162.773 14.4245C162.773 16.5377 161.62 17.7338 159.272 17.9331L156.288 18.1325C152.388 18.4116 149.484 19.6077 147.574 21.6809C145.664 23.7542 144.55 26.904 144.192 31.0904L143.993 33.961H155.174C156.288 33.961 157.123 34.2401 157.68 34.8382C158.277 35.4362 158.556 36.1938 158.556 37.1507C158.556 38.1873 158.237 38.9847 157.641 39.6226C157.044 40.2207 156.129 40.5396 154.975 40.5396H143.475L140.292 80.5297C140.213 81.8454 139.775 82.8421 138.939 83.5199C138.104 84.1977 137.109 84.5566 135.955 84.5566C134.801 84.5566 133.806 84.1977 133.05 83.5199C132.255 82.8421 131.897 81.8454 131.976 80.5297L135.159 40.5396H128.276C127.162 40.5396 126.326 40.2605 125.769 39.6625C125.172 39.0644 124.894 38.3069 124.894 37.35C124.894 36.3134 125.212 35.516 125.809 34.878C126.406 34.28 127.361 33.961 128.594 33.961H135.677L135.796 32.127C136.273 25.4686 138.223 20.4848 141.645 17.1756C145.067 13.8663 150.041 11.9924 156.526 11.5539L158.556 11.4342Z" fill="#6268F1"/>
<path d="M168.702 84.5561C167.548 84.5561 166.593 84.1973 165.837 83.5195C165.081 82.8417 164.723 81.805 164.803 80.4494L170.015 14.8626C170.095 13.5469 170.572 12.59 171.448 11.9521C172.323 11.3141 173.358 10.9952 174.512 10.9952C175.665 10.9952 176.62 11.3141 177.337 11.9521C178.053 12.59 178.371 13.5868 178.292 14.8626L173.119 80.4096C173.039 81.7652 172.602 82.8018 171.726 83.4796C170.891 84.1973 169.896 84.5561 168.702 84.5561Z" fill="#6268F1"/>
<path d="M228.301 32.9211C229.535 32.9211 230.49 33.28 231.206 33.9976C231.922 34.7153 232.201 35.7121 232.081 37.0278L228.58 80.7258C228.5 81.882 228.062 82.799 227.187 83.5167C226.351 84.1945 225.317 84.5533 224.163 84.5533C223.009 84.5533 222.094 84.2344 221.378 83.5964C220.701 82.9585 220.383 82.0415 220.463 80.8853L220.86 75.9413C219.149 78.7323 216.842 80.9251 213.977 82.4801C211.112 84.035 207.889 84.7926 204.348 84.7926C198.817 84.7926 194.599 83.3174 191.734 80.4068C188.869 77.4963 187.437 73.2301 187.437 67.6084C187.437 66.3724 187.477 65.4554 187.556 64.8175L189.705 37.0677C189.824 35.7519 190.342 34.7552 191.177 34.0375C192.013 33.3198 193.047 32.961 194.201 32.961C195.435 32.961 196.39 33.3198 197.106 34.0375C197.822 34.7552 198.101 35.7519 197.981 37.0677L195.833 64.2992C195.753 64.7776 195.713 65.4953 195.713 66.4522C195.713 73.9877 199.294 77.7754 206.496 77.7754C210.953 77.7754 214.494 76.4198 217.16 73.6687C219.826 70.9177 221.338 67.13 221.656 62.2658L223.725 37.0677C223.845 35.7519 224.362 34.7552 225.198 34.0375C226.152 33.28 227.147 32.9211 228.301 32.9211Z" fill="#6268F1"/>
<path d="M250.193 60.2739V60.6726C250.193 66.1747 251.546 70.4009 254.252 73.4311C256.957 76.4612 260.857 77.9365 265.99 77.9365C271.401 77.9365 276.136 76.4214 280.234 73.4311C280.911 72.9526 281.587 72.7134 282.303 72.7134C283.139 72.7134 283.776 73.0324 284.293 73.6304C284.81 74.2285 285.049 74.986 285.049 75.7834C285.049 77.0194 284.492 78.1358 283.417 79.1724C281.587 80.8071 279.001 82.1627 275.658 83.1993C272.356 84.236 268.974 84.7543 265.552 84.7543C258.31 84.7543 252.541 82.5614 248.283 78.1757C244.026 73.7899 241.877 67.8891 241.877 60.4732C241.877 54.9711 242.872 50.1468 244.901 45.9604C246.93 41.774 249.795 38.5046 253.535 36.1921C257.276 33.8796 261.573 32.6835 266.507 32.6835C273.192 32.6835 278.324 34.677 281.905 38.704C285.447 42.7309 287.237 48.5121 287.237 56.1273C287.237 57.4431 286.879 58.4398 286.203 59.1575C285.526 59.8752 284.611 60.234 283.417 60.234L250.193 60.2739ZM266.785 39.1824C262.21 39.1824 258.549 40.538 255.803 43.2492C253.058 45.9604 251.307 49.8278 250.591 54.9312H279.717C279.916 49.7879 278.881 45.8806 276.574 43.2093C274.306 40.538 271.043 39.1824 266.785 39.1824Z" fill="#6268F1"/>
<path d="M325.393 32.7219C331.003 32.7219 335.261 34.1971 338.205 37.1475C341.15 40.0979 342.622 44.364 342.622 49.9857C342.622 51.2217 342.582 52.1388 342.502 52.7767L340.354 80.4467C340.234 81.8023 339.757 82.839 338.921 83.5168C338.086 84.1946 337.091 84.5534 335.937 84.5534C334.624 84.5534 333.629 84.1946 332.913 83.5168C332.197 82.839 331.918 81.8023 332.038 80.4467L334.186 53.295C334.266 52.8165 334.306 52.0989 334.306 51.142C334.306 43.5267 330.645 39.7391 323.324 39.7391C318.668 39.7391 314.968 41.1345 312.262 43.8856C309.517 46.6765 307.965 50.4642 307.527 55.3683L305.458 80.4467C305.379 81.8023 304.941 82.839 304.105 83.5168C303.27 84.1946 302.275 84.5534 301.041 84.5534C299.808 84.5534 298.853 84.1946 298.137 83.5168C297.421 82.839 297.102 81.8023 297.182 80.4467L300.763 36.8684C300.843 35.6324 301.28 34.6755 302.156 33.9977C302.991 33.3199 304.026 32.9611 305.18 32.9611C306.334 32.9611 307.249 33.3199 307.965 33.9977C308.641 34.6755 308.96 35.5925 308.88 36.7886L308.482 41.7326C310.193 38.9416 312.501 36.7488 315.445 35.154C318.39 33.5193 321.692 32.7219 325.393 32.7219Z" fill="#6268F1"/>
<path d="M367.77 65.9366C367.691 66.415 367.651 67.0928 367.651 68.0098C367.651 71.3191 368.407 73.791 369.919 75.5055C371.431 77.2199 373.54 78.0572 376.285 78.0572C377.16 78.0572 378.036 78.0173 378.832 77.8977C379.667 77.7781 380.264 77.7382 380.662 77.7382C381.338 77.7382 381.895 78.0173 382.373 78.5755C382.811 79.1337 383.049 79.8912 383.049 80.8481C383.049 82.2834 382.453 83.2802 381.259 83.8783C380.065 84.4763 377.956 84.7554 374.932 84.7554C369.998 84.7554 366.178 83.3599 363.433 80.5291C360.687 77.7382 359.335 73.7512 359.335 68.6079C359.335 67.651 359.374 66.8935 359.454 66.3353L361.404 40.5391H354.639C353.525 40.5391 352.69 40.26 352.133 39.662C351.576 39.0639 351.257 38.3064 351.257 37.3495C351.257 36.2331 351.576 35.3958 352.212 34.8376C352.849 34.2396 353.764 33.9605 354.918 33.9605H361.881L362.796 22.2386C362.916 21.0824 363.393 20.1255 364.189 19.4078C364.985 18.6901 365.98 18.3313 367.213 18.3313C368.526 18.3313 369.521 18.6901 370.237 19.4477C370.953 20.2052 371.232 21.202 371.112 22.4379L370.197 33.9605H381.498C382.532 33.9605 383.328 34.2396 383.965 34.8376C384.561 35.4357 384.88 36.1932 384.88 37.1501C384.88 38.2665 384.561 39.1038 383.965 39.662C383.368 40.26 382.453 40.5391 381.299 40.5391H369.72L367.77 65.9366Z" fill="#6268F1"/>
<path d="M654.976 51.852L644.268 52.5109C644.085 51.5957 643.691 50.772 643.087 50.0398C642.483 49.2893 641.687 48.6944 640.698 48.2551C639.728 47.7974 638.566 47.5686 637.211 47.5686C635.399 47.5686 633.871 47.953 632.626 48.7218C631.381 49.4723 630.759 50.4791 630.759 51.7421C630.759 52.7489 631.161 53.6001 631.967 54.2957C632.772 54.9912 634.154 55.5495 636.113 55.9705L643.746 57.5081C647.846 58.3502 650.903 59.7047 652.917 61.5718C654.93 63.4389 655.937 65.8918 655.937 68.9304C655.937 71.6944 655.122 74.1198 653.493 76.2065C651.882 78.2933 649.668 79.9224 646.849 81.0939C644.048 82.2471 640.817 82.8237 637.156 82.8237C631.573 82.8237 627.125 81.6613 623.812 79.3366C620.517 76.9936 618.586 73.8086 618.019 69.7815L629.523 69.1775C629.871 70.8798 630.713 72.1795 632.049 73.0764C633.385 73.955 635.097 74.3943 637.184 74.3943C639.234 74.3943 640.881 74.0008 642.126 73.2137C643.389 72.4083 644.03 71.374 644.048 70.111C644.03 69.0493 643.581 68.1799 642.703 67.5026C641.824 66.807 640.469 66.2762 638.639 65.9101L631.335 64.4548C627.217 63.6311 624.151 62.2033 622.137 60.1715C620.142 58.1397 619.144 55.5495 619.144 52.4011C619.144 49.692 619.876 47.3581 621.341 45.3995C622.824 43.4409 624.901 41.9307 627.574 40.8691C630.264 39.8074 633.413 39.2766 637.019 39.2766C642.346 39.2766 646.537 40.4023 649.594 42.6538C652.67 44.9053 654.463 47.9713 654.976 51.852Z" fill="#473CCC"/>
<path d="M586.271 82.6864C583.068 82.6864 580.167 81.8627 577.567 80.2153C574.986 78.5495 572.936 76.1058 571.417 72.8842C569.916 69.6442 569.166 65.6721 569.166 60.9677C569.166 56.1353 569.943 52.1174 571.499 48.914C573.055 45.6924 575.124 43.2853 577.705 41.6928C580.304 40.0819 583.15 39.2765 586.244 39.2765C588.605 39.2765 590.573 39.6792 592.147 40.4846C593.74 41.2718 595.021 42.2602 595.991 43.45C596.98 44.6215 597.73 45.7747 598.243 46.9096H598.6V25.7676H610.269V82H598.737V75.2455H598.243C597.694 76.417 596.916 77.5794 595.909 78.7326C594.92 79.8675 593.63 80.8102 592.037 81.5607C590.463 82.3112 588.541 82.6864 586.271 82.6864ZM589.978 73.3784C591.863 73.3784 593.456 72.8659 594.756 71.8408C596.074 70.7974 597.08 69.3422 597.776 67.4751C598.49 65.608 598.847 63.4206 598.847 60.9128C598.847 58.4051 598.499 56.2268 597.803 54.378C597.108 52.5292 596.101 51.1014 594.783 50.0947C593.465 49.0879 591.863 48.5845 589.978 48.5845C588.056 48.5845 586.436 49.1062 585.118 50.1496C583.8 51.193 582.803 52.639 582.125 54.4878C581.448 56.3366 581.109 58.4783 581.109 60.9128C581.109 63.3657 581.448 65.5348 582.125 67.4202C582.821 69.2873 583.819 70.7517 585.118 71.8133C586.436 72.8567 588.056 73.3784 589.978 73.3784Z" fill="#473CCC"/>
<path d="M541.056 82V39.8257H552.396V47.1842H552.835C553.604 44.5666 554.895 42.5897 556.707 41.2535C558.519 39.8989 560.606 39.2216 562.967 39.2216C563.553 39.2216 564.184 39.2582 564.862 39.3314C565.539 39.4047 566.134 39.5053 566.646 39.6335V50.0123C566.097 49.8476 565.337 49.7011 564.367 49.573C563.397 49.4449 562.509 49.3808 561.704 49.3808C559.983 49.3808 558.446 49.756 557.091 50.5065C555.755 51.2387 554.693 52.2638 553.906 53.5817C553.137 54.8997 552.753 56.419 552.753 58.1396V82H541.056Z" fill="#473CCC"/>
<path d="M508.231 82.7962C505.54 82.7962 503.142 82.3295 501.037 81.3959C498.932 80.4441 497.266 79.0438 496.04 77.195C494.832 75.3279 494.228 73.0032 494.228 70.2208C494.228 67.8778 494.658 65.9101 495.518 64.3175C496.378 62.725 497.55 61.4437 499.033 60.4735C500.515 59.5034 502.199 58.7712 504.085 58.2769C505.988 57.7827 507.984 57.4349 510.07 57.2336C512.523 56.9773 514.5 56.7393 516.001 56.5197C517.502 56.2817 518.591 55.9339 519.269 55.4763C519.946 55.0187 520.284 54.3414 520.284 53.4445V53.2797C520.284 51.5408 519.735 50.1954 518.637 49.2435C517.557 48.2917 516.019 47.8157 514.024 47.8157C511.919 47.8157 510.244 48.2825 509 49.2161C507.755 50.1313 506.931 51.2845 506.528 52.6757L495.71 51.797C496.259 49.2344 497.339 47.0195 498.95 45.1524C500.561 43.267 502.639 41.8209 505.183 40.8141C507.746 39.7891 510.711 39.2766 514.079 39.2766C516.422 39.2766 518.664 39.5511 520.806 40.1003C522.966 40.6494 524.879 41.5006 526.545 42.6538C528.229 43.807 529.556 45.2897 530.526 47.1019C531.496 48.8957 531.981 51.0465 531.981 53.5543V82H520.889V76.1516H520.559C519.882 77.4695 518.976 78.6319 517.841 79.6387C516.706 80.6271 515.342 81.4051 513.75 81.9725C512.157 82.5217 510.317 82.7962 508.231 82.7962ZM511.581 74.7238C513.301 74.7238 514.82 74.3852 516.138 73.7079C517.456 73.0123 518.491 72.0788 519.241 70.9073C519.992 69.7358 520.367 68.4087 520.367 66.926V62.4504C520.001 62.6884 519.497 62.9081 518.857 63.1094C518.234 63.2925 517.53 63.4664 516.742 63.6311C515.955 63.7775 515.168 63.9148 514.381 64.043C513.594 64.1528 512.88 64.2535 512.239 64.345C510.867 64.5463 509.668 64.8667 508.643 65.306C507.618 65.7453 506.821 66.3402 506.254 67.0907C505.686 67.8229 505.403 68.7381 505.403 69.8364C505.403 71.429 505.979 72.6462 507.132 73.4882C508.304 74.312 509.787 74.7238 511.581 74.7238Z" fill="#473CCC"/>
<path d="M467.841 82.8237C463.576 82.8237 459.888 81.9176 456.776 80.1054C453.682 78.275 451.294 75.7306 449.61 72.4723C447.926 69.1958 447.083 65.3975 447.083 61.0776C447.083 56.721 447.926 52.9136 449.61 49.6554C451.294 46.3788 453.682 43.8344 456.776 42.0223C459.888 40.1918 463.576 39.2766 467.841 39.2766C472.106 39.2766 475.785 40.1918 478.879 42.0223C481.991 43.8344 484.389 46.3788 486.073 49.6554C487.757 52.9136 488.599 56.721 488.599 61.0776C488.599 65.3975 487.757 69.1958 486.073 72.4723C484.389 75.7306 481.991 78.275 478.879 80.1054C475.785 81.9176 472.106 82.8237 467.841 82.8237ZM467.896 73.7628C469.836 73.7628 471.456 73.2137 472.756 72.1154C474.056 70.9988 475.035 69.4795 475.694 67.5575C476.371 65.6355 476.71 63.4481 476.71 60.9952C476.71 58.5424 476.371 56.3549 475.694 54.4329C475.035 52.5109 474.056 50.9916 472.756 49.875C471.456 48.7584 469.836 48.2001 467.896 48.2001C465.937 48.2001 464.29 48.7584 462.954 49.875C461.636 50.9916 460.638 52.5109 459.961 54.4329C459.302 56.3549 458.972 58.5424 458.972 60.9952C458.972 63.4481 459.302 65.6355 459.961 67.5575C460.638 69.4795 461.636 70.9988 462.954 72.1154C464.29 73.2137 465.937 73.7628 467.896 73.7628Z" fill="#473CCC"/>
<path d="M397.887 82V25.7676H420.402C424.539 25.7676 427.989 26.3808 430.754 27.6072C433.518 28.8336 435.595 30.536 436.986 32.7143C438.377 34.8742 439.073 37.3637 439.073 40.1826C439.073 42.3792 438.634 44.3104 437.755 45.9761C436.876 47.6235 435.668 48.9781 434.131 50.0398C432.611 51.0831 430.872 51.8245 428.914 52.2638V52.8129C431.056 52.9045 433.06 53.5085 434.927 54.6251C436.812 55.7417 438.341 57.3068 439.512 59.3203C440.684 61.3155 441.27 63.6952 441.27 66.4592C441.27 69.4429 440.528 72.1062 439.046 74.4492C437.581 76.7739 435.412 78.6136 432.538 79.9681C429.664 81.3227 426.122 82 421.912 82H397.887ZM409.776 72.2801H419.469C422.782 72.2801 425.198 71.6486 426.717 70.3856C428.237 69.1042 428.996 67.4019 428.996 65.2785C428.996 63.7226 428.621 62.3498 427.87 61.1599C427.12 59.9701 426.049 59.0366 424.658 58.3593C423.285 57.682 421.647 57.3434 419.743 57.3434H409.776V72.2801ZM409.776 49.2984H418.59C420.219 49.2984 421.665 49.0147 422.928 48.4472C424.21 47.8615 425.216 47.0378 425.948 45.9761C426.699 44.9144 427.074 43.6422 427.074 42.1595C427.074 40.1277 426.351 38.4894 424.905 37.2447C423.477 36 421.446 35.3776 418.81 35.3776H409.776V49.2984Z" fill="#473CCC"/>
<path fill-rule="evenodd" clip-rule="evenodd" d="M0 10C0 4.47716 4.47715 0 10 0H90C95.5228 0 100 4.47715 100 10V90C100 95.5228 95.5229 100 90 100H10C4.47716 100 0 95.5229 0 90V10ZM55 35C55 29.4772 59.4772 25 65 25H73C74.1046 25 75 25.8954 75 27V65C75 70.5229 70.5229 75 65 75H57C55.8954 75 55 74.1046 55 73V35ZM35 25C29.4772 25 25 29.4772 25 35V58C25 59.1046 25.8954 60 27 60H35C40.5228 60 45 55.5228 45 50V27C45 25.8954 44.1046 25 43 25H35Z" fill="#6268F1"/>
</svg>
